<svg xmlns="http://www.w3.org/2000/svg" width="387" height="374" viewBox="0 0 387 374" version="1.1">
	<path d="M 126 37.616 C 88.875 57.684, 58.190 74.418, 57.811 74.802 C 57.066 75.557, 192.475 149.500, 194.602 149.500 C 195.310 149.500, 226.507 132.850, 263.929 112.500 C 319.765 82.137, 331.692 75.292, 330.421 74.343 C 327.607 72.241, 195.409 0.999, 194.444 1.064 C 193.925 1.099, 163.125 17.548, 126 37.616 M 30.969 37.250 C 27.440 42.983, 25.781 50.190, 25.269 62.026 C 24.690 75.388, 26.027 82.209, 31.492 93.781 C 39.646 111.045, 54.428 124.910, 76.980 136.445 L 88 142.082 88 132.124 C 88 125.094, 88.367 122.018, 89.250 121.662 C 89.990 121.364, 89.779 121.126, 88.732 121.079 C 86.302 120.970, 71.893 111.927, 63.976 105.541 C 45.151 90.358, 34.540 75.019, 31.798 59.028 C 30.650 52.334, 31.397 46.086, 34.519 36.250 C 35.606 32.825, 33.293 33.477, 30.969 37.250 M 352.015 35.250 C 352.023 35.938, 352.679 38.300, 353.471 40.500 C 357.155 50.726, 354.481 66.826, 346.989 79.531 C 339.963 91.443, 318.342 110.674, 302.789 118.844 L 297.500 121.623 298 131.841 L 298.500 142.059 307 137.949 C 342.162 120.950, 362.062 94.210, 361.983 64.066 C 361.960 55.473, 359.791 45.494, 356.560 39.119 C 354.113 34.289, 351.982 32.475, 352.015 35.250 M 186.500 66.449 C 181.421 68.323, 179 71.296, 179 75.659 C 179 87.452, 204.402 89.171, 208.454 77.651 C 211.304 69.546, 197.374 62.437, 186.500 66.449 M 97.204 149.640 L 97.500 186.500 100.277 192.430 C 107.370 207.576, 121.664 218.135, 144.980 225.451 C 172.247 234.008, 211.113 234.396, 238.811 226.388 C 260.310 220.171, 276.990 209.224, 284.508 196.396 C 289.574 187.751, 290.050 183.256, 289.764 146.694 L 289.500 113.042 241.500 139.496 C 215.100 154.046, 192.907 165.961, 192.182 165.975 C 191.138 165.995, 113.942 123.010, 100.204 114.759 L 96.907 112.779 97.204 149.640 M 28.388 260.521 L 25.867 263.042 26.184 286.271 C 26.473 307.504, 26.684 309.897, 28.637 314.122 C 35.213 328.344, 51.901 336.131, 66.250 331.672 C 72.404 329.759, 72.647 331.403, 67.019 336.866 C 61.688 342.039, 55.588 343.781, 48.611 342.123 C 38.667 339.760, 38.576 339.759, 35.735 341.994 C 32.829 344.280, 32.103 348.455, 33.996 351.992 C 35.649 355.080, 45.127 358, 53.500 358 C 67.822 358, 79.723 350.507, 85.595 337.791 L 88.500 331.500 88.799 297.253 L 89.098 263.007 86.594 260.503 C 83.298 257.207, 78.723 257.187, 75.455 260.455 C 73.001 262.908, 73 262.922, 73 284.307 C 73 304.851, 72.910 305.836, 70.750 309.010 C 65.632 316.530, 58.254 318.787, 50.819 315.108 C 42.726 311.104, 42.567 310.553, 42 284.660 C 41.507 262.143, 41.466 261.792, 39.139 259.910 C 35.821 257.226, 31.434 257.475, 28.388 260.521 M 141.440 258.878 C 131.136 261.543, 120.863 270.683, 116.852 280.753 C 115.033 285.321, 114.563 288.449, 114.559 296 C 114.555 304.324, 114.906 306.270, 117.401 311.722 C 120.770 319.085, 128.626 327.008, 135.709 330.186 C 143.067 333.487, 155.671 333.358, 163.029 329.906 L 168.559 327.313 171.164 330.156 C 174.528 333.828, 179.106 333.985, 182.545 330.545 L 185 328.091 185 295.500 L 185 262.909 182.545 260.455 C 181.099 259.008, 178.932 258, 177.268 258 C 173.966 258, 170 260.487, 170 262.557 C 170 264.409, 170.227 264.451, 163.465 261.355 C 157.314 258.539, 147.164 257.398, 141.440 258.878 M 240.836 259.853 C 237.721 260.886, 233.613 262.694, 231.708 263.872 C 226.445 267.124, 220.124 274.498, 217.176 280.825 C 214.937 285.629, 214.529 287.885, 214.516 295.521 C 214.501 303.708, 214.803 305.157, 217.774 311.193 C 221.850 319.472, 229.744 326.959, 237.753 330.143 C 242.216 331.917, 245.510 332.433, 252.500 332.451 C 260.520 332.472, 262.218 332.136, 268.094 329.363 C 271.721 327.651, 275.658 325.210, 276.844 323.937 C 279.738 320.831, 279.666 315.975, 276.686 313.174 C 273.612 310.287, 269.647 310.431, 264.194 313.627 C 261.152 315.409, 257.748 316.405, 253.606 316.723 C 233.902 318.240, 222.634 295.036, 236.267 281.022 C 244.104 272.965, 256.001 271.784, 265.154 278.153 C 268.899 280.759, 274.135 280.549, 276.826 277.686 C 286.882 266.982, 259.808 253.567, 240.836 259.853 M 323.500 259.338 C 310.816 263.541, 305.473 270.390, 306.183 281.536 C 306.875 292.407, 313.384 297.851, 330.631 301.987 C 340.126 304.264, 346 307.045, 346 309.263 C 346 311.962, 342.771 314.985, 338.724 316.074 C 332.685 317.700, 326.349 316.496, 319.849 312.486 C 316.581 310.470, 312.892 309, 311.099 309 C 303.903 309, 301.385 317.755, 307.057 323.053 C 313.991 329.530, 328.734 334.031, 338.294 332.588 C 340.930 332.190, 345.864 330.427, 349.259 328.670 C 357.719 324.290, 361.500 318.343, 361.500 309.415 C 361.500 304.078, 361.059 302.543, 358.460 298.836 C 354.680 293.445, 346.336 289.060, 335.350 286.691 C 326.987 284.887, 320.595 281.726, 321.254 279.720 C 321.474 279.049, 323.194 277.447, 325.077 276.161 C 329.715 272.992, 337.145 273.507, 343.037 277.406 C 349.257 281.522, 353.233 281.857, 356.545 278.545 C 358.811 276.280, 359.145 275.270, 358.649 272.177 C 357.949 267.803, 355.678 265.736, 347.151 261.714 C 339.725 258.211, 329.886 257.222, 323.500 259.338 M 141 276.248 C 126.140 284.197, 126.633 308.527, 141.791 315.232 C 159.177 322.922, 175.346 303.127, 166.377 285.129 C 161.377 275.096, 150.362 271.241, 141 276.248" stroke="none" fill="black" fill-rule="evenodd"/>
</svg>