<?xml version="1.0" encoding="UTF-8" standalone="no"?>
<!-- Created with Inkscape (http://www.inkscape.org/) -->

<svg
   width="1000"
   height="1000"
   viewBox="0 0 264.58297 264.58335"
   version="1.1"
   id="svg1"
   xml:space="preserve"
   sodipodi:docname="logo.svg"
   inkscape:version="1.3.2 (091e20ef0f, 2023-11-25, custom)"
   xmlns:inkscape="http://www.inkscape.org/namespaces/inkscape"
   xmlns:sodipodi="http://sodipodi.sourceforge.net/DTD/sodipodi-0.dtd"
   xmlns="http://www.w3.org/2000/svg"
   xmlns:svg="http://www.w3.org/2000/svg"><sodipodi:namedview
     id="namedview1"
     pagecolor="#505050"
     bordercolor="#ffffff"
     borderopacity="1"
     inkscape:showpageshadow="0"
     inkscape:pageopacity="0"
     inkscape:pagecheckerboard="1"
     inkscape:deskcolor="#d1d1d1"
     showgrid="false"
     inkscape:zoom="0.97029368"
     inkscape:cx="484.90474"
     inkscape:cy="558.59377"
     inkscape:window-width="1599"
     inkscape:window-height="961"
     inkscape:window-x="0"
     inkscape:window-y="0"
     inkscape:window-maximized="1"
     inkscape:current-layer="svg1" /><style
     id="style1">
.fg { fill:#ff444c; }
.bg { 
    fill:#302923;
    stroke:#696969;
    stroke-dasharray:none;
    stroke-linecap:round;
    stroke-linejoin:round;
    stroke-opacity:1;
    stroke-width:12.9;
}
</style><path
     d="m 59.150425,177.24995 c -3.57646,0 -6.669616,3.09316 -6.669616,6.76628 v 18.26895 c 0,6.08965 -3.963105,11.11603 -8.602838,11.11603 -4.639733,0 -8.409516,-5.02638 -8.409516,-11.11603 v -18.26895 c 0,-3.67312 -3.093155,-6.76628 -6.766277,-6.76628 -3.673122,0 -6.766277,3.09316 -6.766277,6.76628 v 18.26895 c 0,13.53255 7.249583,24.64858 19.138898,24.64858 7.442905,0 11.40601,-4.34975 11.40601,-8.89282 0,9.56945 -6.669616,13.24257 -11.019365,13.24257 -2.706511,0 -4.543072,-1.06327 -6.862939,-2.2232 -1.546577,-0.86995 -2.996494,-1.44992 -4.543071,-1.44992 -1.546578,0 -3.093156,0.67663 -4.446411,2.12654 -3.769783,4.05977 -1.643239,7.82955 2.223205,10.72939 3.673122,2.60984 9.182805,4.34974 14.692488,4.34974 12.759265,0 23.391987,-11.21268 23.391987,-24.64858 v -36.15125 c 0,-3.67312 -3.093156,-6.76628 -6.766278,-6.76628 z m 64.484265,-0.19332 c -3.76979,0 -6.86294,2.9965 -6.86294,7.53957 0,-4.92972 -6.28297,-8.79616 -11.21269,-8.79616 -13.242578,0 -24.455266,11.69599 -24.455266,25.32521 0,13.9192 11.309349,25.61519 24.551926,25.61519 4.83306,0 11.11603,-3.86645 11.11603,-8.79616 0,4.54307 3.76978,7.53956 6.86294,7.53956 3.76978,0 6.76627,-2.99649 6.76627,-6.76627 v -34.89466 c 0,-3.76978 -3.09315,-6.76628 -6.76627,-6.76628 z m -17.88231,36.15125 c -5.896334,0 -11.116032,-5.703 -11.116032,-12.08263 0,-6.28298 5.219698,-11.79266 11.116032,-11.79266 5.89633,0 11.11603,5.70301 11.11603,12.08264 0,6.28297 -5.2197,11.79265 -11.11603,11.79265 z m 83.23641,-20.10551 c 3.96311,-3.9631 1.64324,-8.31285 -2.02988,-11.40601 -3.96311,-3.18981 -10.14942,-5.60634 -15.36912,-5.60634 -14.59582,0 -26.00183,11.69599 -26.00183,25.32521 0,14.11252 11.98598,25.51853 26.00183,25.51853 5.2197,0 11.40601,-2.70651 15.36912,-5.99299 3.38314,-2.89983 6.18631,-7.4429 2.02988,-11.21269 -1.44991,-1.35325 -2.80317,-1.83656 -4.25309,-1.83656 -1.54657,0 -3.18981,0.67663 -4.83305,1.64324 -2.31987,1.64324 -4.63973,3.96311 -8.60284,3.96311 -6.57295,0 -12.37262,-5.79967 -12.37262,-12.27596 0,-6.37964 5.70301,-11.696 12.37262,-11.696 4.25309,0 6.37963,2.12655 8.60284,3.76979 1.44992,1.15993 3.09315,1.7399 4.63973,1.7399 1.54658,0 3.09316,-0.57997 4.44641,-1.93323 z m 26.97982,-0.67662 c 0,-1.54658 3.28647,-2.80317 7.05626,-2.80317 2.2232,0 3.9631,0.96661 5.50968,1.7399 1.7399,1.06327 3.28648,1.73989 4.92972,1.73989 1.35325,0 2.80317,-0.57996 4.15642,-1.93322 3.96311,-3.67312 1.64324,-8.40951 -2.12654,-11.01936 -3.38314,-2.41653 -8.60284,-4.05977 -13.9192,-4.05977 -10.53606,0 -19.1389,7.24958 -19.1389,15.94908 0,11.40601 10.82605,14.59583 20.00885,15.94908 3.76978,0.57997 6.66962,0.96662 6.66962,2.12655 0,1.7399 -3.76979,3.09315 -8.11954,3.09315 -2.99649,0 -4.92971,-1.25659 -6.66961,-2.31986 -1.83656,-1.15994 -3.57646,-1.93322 -5.31636,-1.93322 -1.54658,0 -3.18982,0.67662 -4.63974,2.41652 -3.86644,4.54308 -0.0967,9.18281 4.15643,11.696 3.76978,2.2232 8.98948,3.67312 14.30584,3.67312 10.72939,0 19.81553,-7.24958 19.81553,-15.94908 0,-11.59934 -10.34274,-14.88581 -19.81553,-16.23907 -3.86644,-0.57997 -6.86293,-0.96661 -6.86293,-2.12654 z"
     id="text1"
     aria-label="yacs"
     class="fg" /><defs
     id="defs1"><inkscape:path-effect
       effect="mirror_symmetry"
       start_point="132.94066,0"
       end_point="132.94066,264.58335"
       center_point="132.94066,132.29167"
       id="path-effect4"
       is_visible="true"
       lpeversion="1.2"
       lpesatellites=""
       mode="vertical"
       discard_orig_path="false"
       fuse_paths="false"
       oposite_fuse="false"
       split_items="false"
       split_open="false"
       link_styles="false" /><inkscape:path-effect
       effect="mirror_symmetry"
       start_point="-0.00018875,58.2"
       end_point="264.58317,58.2"
       center_point="132.29149,58.2"
       id="path-effect3"
       is_visible="true"
       lpeversion="1.2"
       lpesatellites=""
       mode="free"
       discard_orig_path="false"
       fuse_paths="true"
       oposite_fuse="true"
       split_items="false"
       split_open="false"
       link_styles="false" /><inkscape:path-effect
       effect="mirror_symmetry"
       start_point="132.29179,0"
       end_point="132.29179,264.58335"
       center_point="132.29179,132.29168"
       id="path-effect2"
       is_visible="true"
       lpeversion="1.2"
       lpesatellites=""
       mode="vertical"
       discard_orig_path="false"
       fuse_paths="true"
       oposite_fuse="true"
       split_items="false"
       split_open="false"
       link_styles="false" /><inkscape:path-effect
       effect="mirror_symmetry"
       start_point="132.29148,0"
       end_point="132.29148,264.58335"
       center_point="132.29148,132.29167"
       id="path-effect1"
       is_visible="true"
       lpeversion="1.2"
       lpesatellites=""
       mode="vertical"
       discard_orig_path="false"
       fuse_paths="true"
       oposite_fuse="false"
       split_items="false"
       split_open="false"
       link_styles="false" /></defs><path
     id="path3"
     d="M 132.29102,9.2597656 43.669922,58.199219 132.29102,107.14063 220.91211,58.199219 Z m 0,42.5253904 c 5.33177,1.6e-5 9.65576,2.870709 9.66406,6.414063 -0.008,3.543354 -4.33229,6.416 -9.66406,6.416015 -5.33178,-1.5e-5 -9.65577,-2.872661 -9.66407,-6.416015 0.008,-3.543354 4.33229,-6.414047 9.66407,-6.414063 z"
     class="bg"
     inkscape:path-effect="#path-effect1;#path-effect3"
     inkscape:original-d="m 132.29166,9.2604165 -88.635411,48.9475875 78.971411,3.29e-4 c 10e-4,-3.547529 4.32763,-6.422911 9.664,-6.422864 z"
     sodipodi:nodetypes="ccccc"
     style="" /><path
     id="path9"
     d="m 69.589844,83.523437 -0.07031,46.916013 c 0,0.009 0,0.0185 0,0.0274 v 0.63476 h 0.02344 c 0.496149,10.14223 12.352627,19.45461 31.361331,24.54297 9.71098,2.59951 20.54901,3.89847 31.38672,3.89844 10.8377,3e-5 21.67573,-1.29893 31.38671,-3.89844 19.00871,-5.08836 30.86714,-14.40074 31.36329,-24.54297 h 0.0234 v -0.63476 c 0,-0.009 0,-0.0183 0,-0.0274 l -0.0703,-46.916013 -62.70312,35.412113 z"
     sodipodi:nodetypes="ccccccsccc"
     inkscape:original-d="m 194.99391,83.52359 0.0698,46.916 h 0.001 c 0,0.009 -0.001,0.0175 -0.001,0.0264 l 0.001,0.63562 h -0.0238 c -0.49615,10.14224 -12.35371,19.45483 -31.36243,24.5432 -9.711,2.59951 -20.54899,3.89902 -31.38671,3.89899 l -5.2e-4,-40.60838 z"
     inkscape:path-effect="#path-effect2"
     transform="matrix(-0.99999999,0,0,0.99999999,264.58327,0)"
     class="bg"
     style="" /><path
     d="m 63.764583,88.106249 v 13.758331 c 0,0 -32.662142,-12.190775 -39.552539,-37.906083 C 18.6885,43.344351 27.298785,31.324073 28.839584,31.75 c 0,0 -8.55951,19.944856 8.631109,37.044354 19.253662,19.151607 26.293891,19.311895 26.29389,19.311895 z m 138.352157,0 v 13.758331 c 0,0 32.66214,-12.190775 39.55254,-37.906083 5.52354,-20.614146 -3.08674,-32.634424 -4.62754,-32.208497 0,0 8.55951,19.944856 -8.63111,37.044354 -19.25366,19.151607 -26.29389,19.311895 -26.29389,19.311895 z"
     id="path11"
     class="fg"
     sodipodi:nodetypes="ccscsc"
     inkscape:path-effect="#path-effect4"
     inkscape:original-d="m 63.764583,88.106249 v 13.758331 c 0,0 -32.662142,-12.190775 -39.552539,-37.906083 C 18.6885,43.344351 27.298785,31.324073 28.839584,31.75 c 0,0 -8.55951,19.944856 8.631109,37.044354 19.253662,19.151607 26.293891,19.311895 26.29389,19.311895 z"
     transform="translate(-0.64917633)" /></svg>
